<?xml version="1.0" encoding="UTF-8"?>
<svg width="300" height="300" viewBox="0 0 200 200" xmlns="http://www.w3.org/2000/svg">

<!-- Rectangles - background -->
<rect x="0" y="0" width="200" height="200" fill="darkorange" />
<rect x="50" y="50" width="50" height="50" fill="skyblue" />
<rect x="100" y="100" width="50" height="100" fill="skyblue" />
<rect x="0" y="150" width="50" height="50" fill="skyblue" />
<rect x="150" y="0" width="50" height="50" fill="skyblue" />

<!-- Circles -->
<circle cx="75" cy="25" r="25" fill="tomato" />
<circle cx="25" cy="25" r="25" fill="gold" />

<!-- Tunnel -->
<path d="M 0 125 A 25 25 0 0 0 50 125 L 50 100 L 0 100 Z" fill="gold" />

<!-- Quarter Circle -->
<path d="M 50 100 A 50 50 0 0 1 100 150 L 50 150 Z" fill="tomato" />

<path d="M 50 150 A 50 50 0 0 0 100 200 L 100 150 Z" fill="tomato" />

<!-- Zandloper -->
<path d="M 150 100 A 25 25 0 0 1 200 100" fill="tomato" />
<path d="M 150 50 A 25 25 0 0 0 200 50" fill="gold" />

<!-- half circle -->
<path d="M 100 100 A 25 25 0 0 1 100 50" fill="darkblue" />

<!-- quarter tiny -->
<path d="M 50 75 A 25 25 0 0 1 75 100 L 50 100 Z" fill="darkblue" />

<path d="M 50 75 A 25 25 0 0 0 75 50 L 50 50 Z" fill="darkblue" />

<!-- Quarters gold -->
<path d="M 100 0 A 50 50 0 0 1 150 50 L 100 50 Z" fill="gold" />

<path d="M 100 50 A 50 50 0 0 0 150 100 L 150 50 Z" fill="gold" />

<!-- right bottom quadrant -->
<path d="M 125 150 A 25 25 0 0 1 150 175 L 125 175 Z" fill="darkblue" />

<path d="M 125 150 A 25 25 0 0 0 150 125 L 125 125 Z" fill="darkblue" />

<!-- Combined shapes into one path -->
<path d="M 150 125 A 25 25 0 0 0 175 150 L 175 125 Z" fill="darkblue" />
<path d="M 175 150 A 25 25 0 0 0 150 175 L 175 175 Z" fill="darkblue" />

<!-- blue wedges -->
<path d="M 150 25 A 25 25 0 0 0 200 25" fill="darkblue" />
<path d="M 150 0 A 25 25 0 0 0 200 0" fill="darkblue" />

<path d="M 0 150 A 25 25 0 0 0 50 150" fill="darkblue" />
<path d="M 0 175 A 25 25 0 0 0 50 175" fill="darkblue" />

<defs>
	<!-- Define reusable elements here -->
	<path id="tunnel" d="M 0 25 A 25 25 0 0 1 50 25 L 50 50 L 0 50 Z"/>
</defs>

<!-- using a defined object -->
<use href="#tunnel" x="0" y="50" fill="tomato"/>
<use href="#tunnel" x="0" y="100" fill="green" transform="rotate(180 25 125)"/>
<use href="#tunnel" fill="purple" transform="translate(25, 25) rotate(180) translate(-25, -25)"/>
<use href="#tunnel" fill="lightgreen" transform="translate(25, 75) rotate(0) translate(-25, -25)"/>
</svg>