<?xml version="1.0" encoding="UTF-8"?>
<svg width="400" height="200" viewBox="0 0 100 50" xmlns="http://www.w3.org/2000/svg">

<rect x="0" y="0" width="100" height="50" fill="white" />
<!-- <rect x="10" y="10" width="80" height="80" fill="lightblue" />
<rect x="20" y="20" width="60" height="60" fill="white" />
<rect x="30" y="30" width="40" height="40" fill="lightblue" />
<rect x="40" y="40" width="20" height="20" fill="white" /> -->

<!-- square -->
<!-- <rect x="1" y="1" width="8" height="8" fill="lightblue" /> -->

<!-- Square with one rounded corner -->
<!-- <path d="M 40 40 L 50 40 A 10 10 0 0 1 60 50 L 60 60 L 40 60 Z" fill="darkblue" /> -->

<!-- Square with two rounded corners -->
<!-- <path d="M 40 40 L 50 40 A 10 10 0 0 1 50 60 L 40 60 Z" fill="darkblue" /> -->

<!-- square with 3 rounded corners -->
<!-- <path d="M 40 40 L 50 40 A 10 10 0 1 1 40 50 Z" fill="darkblue" /> -->


<!-- Circle -->
<!-- <circle cx="50" cy="50" r="10" fill="darkblue" /> -->

<!-- Two rounded corners opposites -->
<!-- <path d="M 40 40 L 50 40 A 10 10 0 0 1 60 50 L 60 60 L 50 60 A 10 10 0 0 1 40 50 Z" fill="darkblue" /> -->

<!-- Boat -->
<!-- Romp -->
<!-- <path d="M 20 60 A 20 30 60 0 0 40 70 L 60 70 A 40 50 0 0 0 80 60 Z" fill="orange"/> -->

<!-- opbouw -->
<!-- <path d="M 60 60 L 55 57 L 40 57 L 40 60 Z" fill="purple" /> -->

<!-- Mast -->
<!-- <path d="M 55 57 L 55 15 L 53 15 L 53 57 Z" fill="red" /> -->

<!-- Boat -->
<!-- Romp -->
<!-- <path d="M 20 80 A 20 30 60 0 0 40 90 L 60 90 A 40 50 0 0 0 80 80 Z" fill="orange"/> -->
<!-- opbouw -->
<!-- <path d="M 60 80 L 55 77 L 40 77 L 40 80 Z" fill="purple" /> -->
<!-- Mast -->
<!-- <path d="M 55 77 L 55 10 L 53 10 L 53 77 Z" fill="red" /> -->

<!-- Jib -->
<!-- <path d="M 55 10 A 180 100 0 0 1 80 80 A 40 60 0 0 0 65 75 A 180 160 0 0 0 55 10" fill="lightcoral" /> -->
<!-- <path d="M 55 20 A 180 100 0 0 1 80 80 A 40 60 0 0 0 65 75 A 180 160 0 0 0 55 20" fill="lightcoral" /> -->

<!-- Mainsail -->
<!-- <path d="M 53 12 L 53 72.5 L 30 72.5 Z" fill="lightcoral" /> -->

<!-- boom -->
<!-- <rect x="30" y="72.5" width="25" height="1.5" fill="red" /> -->

<defs>
  <symbol id="boat" viewBox="0 0 100 100">
    <!-- Romp -->
    <path d="M 20 80 A 20 30 60 0 0 40 90 L 60 90 A 40 50 0 0 0 80 80 Z" fill="currentColor"/>
    <!-- Opbouw -->
    <path d="M 60 80 L 55 77 L 40 77 L 40 80 Z" fill="currentColor" />
    <!-- Mast -->
    <path d="M 55 77 L 55 10 L 53 10 L 53 77 Z" fill="currentColor" />
    <!-- Jib -->
    <path d="M 55 20 A 180 100 0 0 1 80 80 A 40 60 0 0 0 65 75 A 180 160 0 0 0 55 20" fill="currentColor" />
    <!-- Mainsail -->
    <path d="M 53 12 L 53 72.5 L 30 72.5 Z" fill="currentColor" />
    <!-- Boom -->
    <rect x="30" y="72.5" width="25" height="1.5" fill="currentColor" />
  </symbol>

  <symbol id="bl-round-corner" viewBox="0 0 10 10">
  	<path d="M 1 1 L 9 1 L 9 9 L 5 9 A 4 4 0 0 1 1 5 Z" fill="currentColor" />
  </symbol>

  <symbol id="lemon" viewBox="0 0 10 10">
	<path d="M 1 1 L 5 1 A 4 4 0 0 1 9 5 L 9 9 L 5 9 A 4 4 0 0 1 1 5 Z" fill="currentColor" />
  </symbol>

  <symbol id="droplet" viewBox="0 0 10 10">
	<path d="M 1 1 L 5 1 A 4 4 0 1 1 1 5 Z" fill="currentColor" />
  </symbol>

  <symbol id="circle" viewBox="0 0 10 10">
	<circle cx="5" cy="5" r="4" fill="currentColor" />
  </symbol>
</defs>

<use href="#boat" x="40" y="30" width="10" height="10" color="orange" />

<!-- 1 -->
<rect x="1" y="1" width="8" height="8" fill="deepskyblue" />
<rect x="1" y="11" width="8" height="8" fill="royalblue" />
<rect x="1" y="21" width="8" height="8" fill="slateblue" />
<rect x="1" y="31" width="8" height="8" fill="darkslateblue" />
<rect x="1" y="41" width="8" height="8" fill="teal" />

<!-- 2 -->
<rect x="11" y="1" width="8" height="8" fill="steelblue" />
<rect x="11" y="11" width="8" height="8" fill="deepskyblue" />
<rect x="11" y="21" width="8" height="8" fill="royalblue" />
<rect x="11" y="31" width="8" height="8" fill="slateblue" />
<rect x="11" y="41" width="8" height="8" fill="darkslateblue" />

<!-- 3 -->
<use href="#bl-round-corner" x="20" y="0" width="10" height="10" color="steelblue" />
<use href="#bl-round-corner" x="20" y="10" width="10" height="10" color="steelblue" />
<use href="#bl-round-corner" x="20" y="20" width="10" height="10" color="royalblue" />
<use href="#bl-round-corner" x="20" y="30" width="10" height="10" color="navy" />
<use href="#bl-round-corner" x="20" y="40" width="10" height="10" color="midnightblue" />

<!-- 4 -->
<use href="#bl-round-corner" x="30" y="0" width="10" height="10" color="deepskyblue" />
<use href="#bl-round-corner" x="30" y="10" width="10" height="10" color="steelblue" />
<use href="#bl-round-corner" x="30" y="20" width="10" height="10" color="royalblue" />
<use href="#bl-round-corner" x="30" y="30" width="10" height="10" color="midnightblue" />
<use href="#bl-round-corner" x="30" y="40" width="10" height="10" color="slateblue" />

<!-- 5 -->
<use href="#lemon" x="40" y="0" width="10" height="10" color="lightblue" />
<use href="#lemon" x="40" y="10" width="10" height="10" color="royalblue" />
<use href="#lemon" x="40" y="20" width="10" height="10" color="steelblue" />
<!-- Boat at 40 30 -->
<use href="#lemon" x="40" y="40" width="10" height="10" color="midnightblue" />

<!-- 6 -->
<use href="#lemon" x="50" y="0" width="10" height="10" color="lightblue" />
<use href="#lemon" x="50" y="10" width="10" height="10" color="deepskyblue" />
<use href="#lemon" x="50" y="20" width="10" height="10" color="deepskyblue" />
<use href="#lemon" x="50" y="30" width="10" height="10" color="steelblue" />
<use href="#lemon" x="50" y="40" width="10" height="10" color="midnightblue" />

<!-- 7 -->
<use href="#droplet" x="60" y="0" width="10" height="10" color="deepskyblue" />
<use href="#droplet" x="60" y="10" width="10" height="10" color="royalblue" />
<use href="#droplet" x="60" y="20" width="10" height="10" color="turquoise" />
<use href="#droplet" x="60" y="30" width="10" height="10" color="steelblue" />
<use href="#droplet" x="60" y="40" width="10" height="10" color="steelblue" />

<!-- 8 -->
<use href="#droplet" x="70" y="0" width="10" height="10" color="lightblue" />
<use href="#droplet" x="70" y="10" width="10" height="10" color="royalblue" />
<use href="#droplet" x="70" y="20" width="10" height="10" color="deepskyblue" />
<use href="#droplet" x="70" y="30" width="10" height="10" color="royalblue" />
<use href="#droplet" x="70" y="40" width="10" height="10" color="slateblue" />

<!-- 9 -->
<use href="#circle" x="80" y="0" width="10" height="10" color="khaki" />
<use href="#circle" x="80" y="10" width="10" height="10" color="lightblue" />
<use href="#circle" x="80" y="20" width="10" height="10" color="deepskyblue" />
<use href="#circle" x="80" y="30" width="10" height="10" color="royalblue" />
<use href="#circle" x="80" y="40" width="10" height="10" color="slateblue" />

<!-- 10 -->
<use href="#circle" x="90" y="0" width="10" height="10" color="lightgreen" />
<use href="#circle" x="90" y="10" width="10" height="10" color="khaki" />
<use href="#circle" x="90" y="20" width="10" height="10" color="lightblue" />
<use href="#circle" x="90" y="30" width="10" height="10" color="deepskyblue" />
<use href="#circle" x="90" y="40" width="10" height="10" color="royalblue" />



</svg>